{
	"patcher" : 	{
		"fileversion" : 1,
		"appversion" : 		{
			"major" : 6,
			"minor" : 0,
			"revision" : 2
		}
,
		"rect" : [ 716.0, 158.0, 752.0, 747.0 ],
		"bglocked" : 0,
		"openinpresentation" : 0,
		"default_fontsize" : 12.0,
		"default_fontface" : 0,
		"default_fontname" : "Arial",
		"gridonopen" : 0,
		"gridsize" : [ 15.0, 15.0 ],
		"gridsnaponopen" : 0,
		"statusbarvisible" : 2,
		"toolbarvisible" : 1,
		"boxanimatetime" : 200,
		"imprint" : 0,
		"enablehscroll" : 1,
		"enablevscroll" : 1,
		"devicewidth" : 0.0,
		"description" : "",
		"digest" : "",
		"tags" : "",
		"boxes" : [ 			{
				"box" : 				{
					"border" : 0,
					"embedstate" : [ [ "vreset", 50 ], [ "vmax", 100 ], [ "frgb", 1, 1, 1, 1 ], [ "brgb", 0.192157, 0.682353, 0.580392, 1 ], [ "vmin", 0 ], [ "type", 1 ], [ "font", "Arial" ], [ "fontsize", 10 ], [ "readout", 1 ] ],
					"filename" : "ol.pngknob.js",
					"id" : "obj-38",
					"jsarguments" : [ "knob1-60.png", 60 ],
					"maxclass" : "jsui",
					"numinlets" : 1,
					"numoutlets" : 1,
					"outlettype" : [ "" ],
					"parameter_enable" : 0,
					"patching_rect" : [ 361.0, 636.0, 48.0, 68.0 ],
					"presentation_rect" : [ 55.5, 508.0, 48.0, 68.0 ]
				}

			}
, 			{
				"box" : 				{
					"border" : 0,
					"embedstate" : [ [ "vreset", 0 ], [ "vmax", 1 ], [ "frgb", 0, 0, 0, 0 ], [ "brgb", 1, 1, 1, 0 ], [ "vmin", 0 ], [ "type", 1 ], [ "font", "Arial" ], [ "fontsize", 10 ], [ "readout", 0 ] ],
					"filename" : "ol.pngknob.js",
					"id" : "obj-36",
					"jsarguments" : [ "knob4-100.png", 100 ],
					"maxclass" : "jsui",
					"numinlets" : 1,
					"numoutlets" : 1,
					"outlettype" : [ "" ],
					"parameter_enable" : 0,
					"patching_rect" : [ 190.833344, 602.0, 60.0, 60.0 ],
					"presentation_rect" : [ 520.5, 108.0, 60.0, 60.0 ]
				}

			}
, 			{
				"box" : 				{
					"border" : 0,
					"embedstate" : [ [ "vreset", 0 ], [ "vmax", 1 ], [ "frgb", 0, 0, 0, 0 ], [ "brgb", 1, 1, 1, 0 ], [ "vmin", 0 ], [ "type", 1 ], [ "font", "Arial" ], [ "fontsize", 10 ], [ "readout", 0 ] ],
					"filename" : "ol.pngknob.js",
					"id" : "obj-35",
					"jsarguments" : [ "knob4-100.png", 100 ],
					"maxclass" : "jsui",
					"numinlets" : 1,
					"numoutlets" : 1,
					"outlettype" : [ "" ],
					"parameter_enable" : 0,
					"patching_rect" : [ 122.333336, 602.0, 60.0, 60.0 ],
					"presentation_rect" : [ 454.5, 108.0, 60.0, 60.0 ]
				}

			}
, 			{
				"box" : 				{
					"border" : 0,
					"embedstate" : [ [ "vreset", 0 ], [ "vmax", 1 ], [ "frgb", 1, 1, 1, 1 ], [ "brgb", 1, 1, 1, 0 ], [ "vmin", 0 ], [ "type", 1 ], [ "font", "Arial" ], [ "fontsize", 10 ], [ "readout", 1 ] ],
					"filename" : "ol.pngknob.js",
					"id" : "obj-33",
					"jsarguments" : [ "knob4-100.png", 100 ],
					"maxclass" : "jsui",
					"numinlets" : 1,
					"numoutlets" : 1,
					"outlettype" : [ "" ],
					"parameter_enable" : 0,
					"patching_rect" : [ 53.833336, 602.0, 60.0, 80.0 ],
					"presentation_rect" : [ 512.5, 424.0, 60.0, 80.0 ]
				}

			}
, 			{
				"box" : 				{
					"border" : 0,
					"embedstate" : [ [ "vreset", 0 ], [ "vmax", 1 ], [ "frgb", 0, 0, 0, 0 ], [ "brgb", 1, 1, 1, 0 ], [ "vmin", 0 ], [ "type", 1 ], [ "font", "Arial" ], [ "fontsize", 10 ], [ "readout", 0 ] ],
					"filename" : "ol.pngknob.js",
					"id" : "obj-32",
					"jsarguments" : [ "knob3-63.png", 63 ],
					"maxclass" : "jsui",
					"numinlets" : 1,
					"numoutlets" : 1,
					"outlettype" : [ "" ],
					"parameter_enable" : 0,
					"patching_rect" : [ 634.5, 328.0, 42.0, 42.0 ],
					"presentation_rect" : [ 633.5, 328.0, 42.0, 42.0 ]
				}

			}
, 			{
				"box" : 				{
					"border" : 0,
					"embedstate" : [ [ "vreset", 0 ], [ "vmax", 1 ], [ "frgb", 0, 0, 0, 0 ], [ "brgb", 1, 1, 1, 0 ], [ "vmin", 0 ], [ "type", 1 ], [ "font", "Arial" ], [ "fontsize", 10 ], [ "readout", 0 ] ],
					"filename" : "ol.pngknob.js",
					"id" : "obj-31",
					"jsarguments" : [ "knob3-63.png", 63 ],
					"maxclass" : "jsui",
					"numinlets" : 1,
					"numoutlets" : 1,
					"outlettype" : [ "" ],
					"parameter_enable" : 0,
					"patching_rect" : [ 592.5, 328.0, 42.0, 42.0 ],
					"presentation_rect" : [ 591.5, 328.0, 42.0, 42.0 ]
				}

			}
, 			{
				"box" : 				{
					"border" : 0,
					"embedstate" : [ [ "vreset", 0 ], [ "vmax", 1 ], [ "frgb", 0, 0, 0, 0 ], [ "brgb", 1, 1, 1, 0 ], [ "vmin", 0 ], [ "type", 1 ], [ "font", "Arial" ], [ "fontsize", 10 ], [ "readout", 0 ] ],
					"filename" : "ol.pngknob.js",
					"id" : "obj-23",
					"jsarguments" : [ "knob3-63.png", 63 ],
					"maxclass" : "jsui",
					"numinlets" : 1,
					"numoutlets" : 1,
					"outlettype" : [ "" ],
					"parameter_enable" : 0,
					"patching_rect" : [ 550.5, 328.0, 42.0, 42.0 ],
					"presentation_rect" : [ 577.5, 349.0, 42.0, 42.0 ]
				}

			}
, 			{
				"box" : 				{
					"id" : "obj-26",
					"maxclass" : "toggle",
					"numinlets" : 1,
					"numoutlets" : 1,
					"outlettype" : [ "int" ],
					"parameter_enable" : 0,
					"patching_rect" : [ 361.0, 477.0, 20.0, 20.0 ]
				}

			}
, 			{
				"box" : 				{
					"fontname" : "Arial",
					"fontsize" : 13.0,
					"id" : "obj-27",
					"maxclass" : "newobj",
					"numinlets" : 1,
					"numoutlets" : 1,
					"outlettype" : [ "" ],
					"patcher" : 					{
						"fileversion" : 1,
						"appversion" : 						{
							"major" : 6,
							"minor" : 0,
							"revision" : 2
						}
,
						"rect" : [ 40.0, 55.0, 453.0, 333.0 ],
						"bglocked" : 0,
						"openinpresentation" : 0,
						"default_fontsize" : 10.0,
						"default_fontface" : 0,
						"default_fontname" : "Arial",
						"gridonopen" : 0,
						"gridsize" : [ 15.0, 15.0 ],
						"gridsnaponopen" : 0,
						"statusbarvisible" : 2,
						"toolbarvisible" : 1,
						"boxanimatetime" : 200,
						"imprint" : 0,
						"enablehscroll" : 1,
						"enablevscroll" : 1,
						"devicewidth" : 0.0,
						"description" : "",
						"digest" : "",
						"tags" : "",
						"boxes" : [ 							{
								"box" : 								{
									"fontname" : "Arial",
									"fontsize" : 11.595187,
									"id" : "obj-18",
									"maxclass" : "newobj",
									"numinlets" : 1,
									"numoutlets" : 1,
									"outlettype" : [ "" ],
									"patching_rect" : [ 26.0, 209.0, 83.0, 20.0 ],
									"text" : "vexpr $i1/255."
								}

							}
, 							{
								"box" : 								{
									"comment" : "",
									"id" : "obj-1",
									"maxclass" : "inlet",
									"numinlets" : 0,
									"numoutlets" : 1,
									"outlettype" : [ "int" ],
									"patching_rect" : [ 26.0, 9.0, 25.0, 25.0 ]
								}

							}
, 							{
								"box" : 								{
									"comment" : "",
									"id" : "obj-2",
									"maxclass" : "outlet",
									"numinlets" : 1,
									"numoutlets" : 0,
									"patching_rect" : [ 26.0, 237.0, 25.0, 25.0 ]
								}

							}
, 							{
								"box" : 								{
									"fontname" : "Arial",
									"fontsize" : 11.595187,
									"id" : "obj-3",
									"maxclass" : "newobj",
									"numinlets" : 4,
									"numoutlets" : 1,
									"outlettype" : [ "" ],
									"patching_rect" : [ 26.0, 186.0, 75.0, 20.0 ],
									"text" : "pack i i i 255"
								}

							}
, 							{
								"box" : 								{
									"fontname" : "Arial",
									"fontsize" : 11.595187,
									"id" : "obj-4",
									"maxclass" : "newobj",
									"numinlets" : 2,
									"numoutlets" : 1,
									"outlettype" : [ "bang" ],
									"patching_rect" : [ 181.5, 82.0, 69.0, 20.0 ],
									"text" : "metro 1300"
								}

							}
, 							{
								"box" : 								{
									"fontname" : "Arial",
									"fontsize" : 11.595187,
									"id" : "obj-5",
									"maxclass" : "message",
									"numinlets" : 2,
									"numoutlets" : 1,
									"outlettype" : [ "" ],
									"patching_rect" : [ 181.5, 132.0, 52.0, 18.0 ],
									"text" : "$1 1300"
								}

							}
, 							{
								"box" : 								{
									"fontname" : "Arial",
									"fontsize" : 11.595187,
									"id" : "obj-6",
									"maxclass" : "newobj",
									"numinlets" : 2,
									"numoutlets" : 1,
									"outlettype" : [ "int" ],
									"patching_rect" : [ 181.5, 107.0, 72.0, 20.0 ],
									"text" : "random 256"
								}

							}
, 							{
								"box" : 								{
									"fontname" : "Arial",
									"fontsize" : 11.595187,
									"id" : "obj-7",
									"maxclass" : "newobj",
									"numinlets" : 3,
									"numoutlets" : 2,
									"outlettype" : [ "", "" ],
									"patching_rect" : [ 181.5, 157.0, 51.0, 20.0 ],
									"text" : "line 100"
								}

							}
, 							{
								"box" : 								{
									"fontname" : "Arial",
									"fontsize" : 11.595187,
									"id" : "obj-8",
									"maxclass" : "newobj",
									"numinlets" : 3,
									"numoutlets" : 2,
									"outlettype" : [ "", "" ],
									"patching_rect" : [ 103.5, 157.333328, 51.0, 20.0 ],
									"text" : "line 100"
								}

							}
, 							{
								"box" : 								{
									"fontname" : "Arial",
									"fontsize" : 11.595187,
									"id" : "obj-9",
									"maxclass" : "newobj",
									"numinlets" : 2,
									"numoutlets" : 1,
									"outlettype" : [ "int" ],
									"patching_rect" : [ 103.5, 107.333336, 72.0, 20.0 ],
									"text" : "random 256"
								}

							}
, 							{
								"box" : 								{
									"fontname" : "Arial",
									"fontsize" : 11.595187,
									"id" : "obj-10",
									"maxclass" : "message",
									"numinlets" : 2,
									"numoutlets" : 1,
									"outlettype" : [ "" ],
									"patching_rect" : [ 103.5, 132.333344, 46.0, 18.0 ],
									"text" : "$1 900"
								}

							}
, 							{
								"box" : 								{
									"fontname" : "Arial",
									"fontsize" : 11.595187,
									"id" : "obj-11",
									"maxclass" : "newobj",
									"numinlets" : 2,
									"numoutlets" : 1,
									"outlettype" : [ "bang" ],
									"patching_rect" : [ 103.5, 82.0, 63.0, 20.0 ],
									"text" : "metro 900"
								}

							}
, 							{
								"box" : 								{
									"id" : "obj-12",
									"maxclass" : "toggle",
									"numinlets" : 1,
									"numoutlets" : 1,
									"outlettype" : [ "int" ],
									"parameter_enable" : 0,
									"patching_rect" : [ 26.0, 46.0, 20.0, 20.0 ]
								}

							}
, 							{
								"box" : 								{
									"fontname" : "Arial",
									"fontsize" : 11.595187,
									"id" : "obj-13",
									"maxclass" : "newobj",
									"numinlets" : 2,
									"numoutlets" : 1,
									"outlettype" : [ "bang" ],
									"patching_rect" : [ 26.0, 82.0, 69.0, 20.0 ],
									"text" : "metro 1000"
								}

							}
, 							{
								"box" : 								{
									"fontname" : "Arial",
									"fontsize" : 11.595187,
									"id" : "obj-14",
									"maxclass" : "message",
									"numinlets" : 2,
									"numoutlets" : 1,
									"outlettype" : [ "" ],
									"patching_rect" : [ 26.0, 132.333344, 52.0, 18.0 ],
									"text" : "$1 1000"
								}

							}
, 							{
								"box" : 								{
									"fontname" : "Arial",
									"fontsize" : 11.595187,
									"id" : "obj-15",
									"maxclass" : "newobj",
									"numinlets" : 2,
									"numoutlets" : 1,
									"outlettype" : [ "int" ],
									"patching_rect" : [ 26.0, 107.333336, 72.0, 20.0 ],
									"text" : "random 256"
								}

							}
, 							{
								"box" : 								{
									"fontname" : "Arial",
									"fontsize" : 11.595187,
									"id" : "obj-16",
									"maxclass" : "newobj",
									"numinlets" : 3,
									"numoutlets" : 2,
									"outlettype" : [ "", "" ],
									"patching_rect" : [ 26.0, 157.333328, 51.0, 20.0 ],
									"text" : "line 100"
								}

							}
, 							{
								"box" : 								{
									"fontname" : "Arial",
									"fontsize" : 11.595187,
									"id" : "obj-17",
									"maxclass" : "comment",
									"numinlets" : 1,
									"numoutlets" : 0,
									"patching_rect" : [ 59.0, 45.0, 185.0, 20.0 ],
									"text" : "<- turn on mood machine"
								}

							}
 ],
						"lines" : [ 							{
								"patchline" : 								{
									"destination" : [ "obj-12", 0 ],
									"disabled" : 0,
									"hidden" : 0,
									"source" : [ "obj-1", 0 ]
								}

							}
, 							{
								"patchline" : 								{
									"destination" : [ "obj-8", 0 ],
									"disabled" : 0,
									"hidden" : 0,
									"source" : [ "obj-10", 0 ]
								}

							}
, 							{
								"patchline" : 								{
									"destination" : [ "obj-9", 0 ],
									"disabled" : 0,
									"hidden" : 0,
									"source" : [ "obj-11", 0 ]
								}

							}
, 							{
								"patchline" : 								{
									"destination" : [ "obj-11", 0 ],
									"disabled" : 0,
									"hidden" : 0,
									"source" : [ "obj-12", 0 ]
								}

							}
, 							{
								"patchline" : 								{
									"destination" : [ "obj-13", 0 ],
									"disabled" : 0,
									"hidden" : 0,
									"source" : [ "obj-12", 0 ]
								}

							}
, 							{
								"patchline" : 								{
									"destination" : [ "obj-4", 0 ],
									"disabled" : 0,
									"hidden" : 0,
									"source" : [ "obj-12", 0 ]
								}

							}
, 							{
								"patchline" : 								{
									"destination" : [ "obj-15", 0 ],
									"disabled" : 0,
									"hidden" : 0,
									"source" : [ "obj-13", 0 ]
								}

							}
, 							{
								"patchline" : 								{
									"destination" : [ "obj-16", 0 ],
									"disabled" : 0,
									"hidden" : 0,
									"source" : [ "obj-14", 0 ]
								}

							}
, 							{
								"patchline" : 								{
									"destination" : [ "obj-14", 0 ],
									"disabled" : 0,
									"hidden" : 0,
									"source" : [ "obj-15", 0 ]
								}

							}
, 							{
								"patchline" : 								{
									"destination" : [ "obj-3", 0 ],
									"disabled" : 0,
									"hidden" : 0,
									"source" : [ "obj-16", 0 ]
								}

							}
, 							{
								"patchline" : 								{
									"destination" : [ "obj-2", 0 ],
									"disabled" : 0,
									"hidden" : 0,
									"source" : [ "obj-18", 0 ]
								}

							}
, 							{
								"patchline" : 								{
									"destination" : [ "obj-18", 0 ],
									"disabled" : 0,
									"hidden" : 0,
									"source" : [ "obj-3", 0 ]
								}

							}
, 							{
								"patchline" : 								{
									"destination" : [ "obj-6", 0 ],
									"disabled" : 0,
									"hidden" : 0,
									"source" : [ "obj-4", 0 ]
								}

							}
, 							{
								"patchline" : 								{
									"destination" : [ "obj-7", 0 ],
									"disabled" : 0,
									"hidden" : 0,
									"source" : [ "obj-5", 0 ]
								}

							}
, 							{
								"patchline" : 								{
									"destination" : [ "obj-5", 0 ],
									"disabled" : 0,
									"hidden" : 0,
									"source" : [ "obj-6", 0 ]
								}

							}
, 							{
								"patchline" : 								{
									"destination" : [ "obj-3", 2 ],
									"disabled" : 0,
									"hidden" : 0,
									"source" : [ "obj-7", 0 ]
								}

							}
, 							{
								"patchline" : 								{
									"destination" : [ "obj-3", 1 ],
									"disabled" : 0,
									"hidden" : 0,
									"source" : [ "obj-8", 0 ]
								}

							}
, 							{
								"patchline" : 								{
									"destination" : [ "obj-10", 0 ],
									"disabled" : 0,
									"hidden" : 0,
									"source" : [ "obj-9", 0 ]
								}

							}
 ],
						"dependency_cache" : [  ]
					}
,
					"patching_rect" : [ 361.0, 515.0, 111.0, 21.0 ],
					"saved_object_attributes" : 					{
						"default_fontface" : 0,
						"fontname" : "Arial",
						"digest" : "",
						"default_fontname" : "Arial",
						"globalpatchername" : "",
						"tags" : "",
						"default_fontsize" : 10.0,
						"fontface" : 0,
						"fontsize" : 10.0,
						"description" : ""
					}
,
					"text" : "p mood_machine"
				}

			}
, 			{
				"box" : 				{
					"fontname" : "Arial",
					"fontsize" : 12.0,
					"id" : "obj-8",
					"maxclass" : "message",
					"numinlets" : 2,
					"numoutlets" : 1,
					"outlettype" : [ "" ],
					"patching_rect" : [ 490.0, 273.0, 66.0, 18.0 ],
					"text" : "font Times"
				}

			}
, 			{
				"box" : 				{
					"fontname" : "Arial",
					"fontsize" : 12.0,
					"id" : "obj-29",
					"maxclass" : "message",
					"numinlets" : 2,
					"numoutlets" : 1,
					"outlettype" : [ "" ],
					"patching_rect" : [ 464.0, 238.0, 77.0, 18.0 ],
					"text" : "font Monaco"
				}

			}
, 			{
				"box" : 				{
					"fontname" : "Arial",
					"fontsize" : 12.0,
					"id" : "obj-28",
					"maxclass" : "message",
					"numinlets" : 2,
					"numoutlets" : 1,
					"outlettype" : [ "" ],
					"patching_rect" : [ 412.0, 197.0, 57.0, 18.0 ],
					"text" : "font Arial"
				}

			}
, 			{
				"box" : 				{
					"fontname" : "Arial",
					"fontsize" : 12.0,
					"id" : "obj-22",
					"maxclass" : "comment",
					"numinlets" : 1,
					"numoutlets" : 0,
					"patching_rect" : [ 246.0, 134.0, 94.0, 20.0 ],
					"text" : "0 = int, 1 = float"
				}

			}
, 			{
				"box" : 				{
					"id" : "obj-24",
					"maxclass" : "toggle",
					"numinlets" : 1,
					"numoutlets" : 1,
					"outlettype" : [ "int" ],
					"parameter_enable" : 0,
					"patching_rect" : [ 221.5, 134.0, 20.0, 20.0 ]
				}

			}
, 			{
				"box" : 				{
					"fontname" : "Arial",
					"fontsize" : 12.0,
					"id" : "obj-25",
					"maxclass" : "message",
					"numinlets" : 2,
					"numoutlets" : 1,
					"outlettype" : [ "" ],
					"patching_rect" : [ 221.5, 171.0, 50.0, 18.0 ],
					"text" : "type $1"
				}

			}
, 			{
				"box" : 				{
					"fontface" : 3,
					"fontname" : "Arial",
					"fontsize" : 20.871338,
					"id" : "obj-110",
					"maxclass" : "comment",
					"numinlets" : 1,
					"numoutlets" : 0,
					"patching_rect" : [ 9.0, 9.0, 705.0, 30.0 ],
					"text" : "ol.pngknob.js",
					"varname" : "autohelp_top_title"
				}

			}
, 			{
				"box" : 				{
					"fontname" : "Arial",
					"fontsize" : 12.754705,
					"id" : "obj-111",
					"maxclass" : "comment",
					"numinlets" : 1,
					"numoutlets" : 0,
					"patching_rect" : [ 9.0, 41.0, 705.0, 21.0 ],
					"text" : "jsui vertically stiched png based control",
					"varname" : "autohelp_top_digest"
				}

			}
, 			{
				"box" : 				{
					"border" : 0,
					"embedstate" : [ [ "vreset", 0 ], [ "vmax", 1 ], [ "frgb", 0, 0, 0, 0 ], [ "brgb", 1, 1, 1, 0 ], [ "vmin", 0 ], [ "type", 1 ], [ "font", "Arial" ], [ "fontsize", 10 ], [ "readout", 0 ] ],
					"filename" : "ol.pngknob.js",
					"id" : "obj-18",
					"jsarguments" : [ "knob2-100.png", 100 ],
					"maxclass" : "jsui",
					"numinlets" : 1,
					"numoutlets" : 1,
					"outlettype" : [ "" ],
					"parameter_enable" : 0,
					"patching_rect" : [ 284.5, 512.0, 27.0, 27.0 ],
					"presentation_rect" : [ 250.0, 326.0, 27.0, 27.0 ]
				}

			}
, 			{
				"box" : 				{
					"border" : 0,
					"embedstate" : [ [ "vreset", 0 ], [ "vmax", 1 ], [ "frgb", 0, 0, 0, 0 ], [ "brgb", 1, 1, 1, 0 ], [ "vmin", 0 ], [ "type", 1 ], [ "font", "Arial" ], [ "fontsize", 10 ], [ "readout", 0 ] ],
					"filename" : "ol.pngknob.js",
					"id" : "obj-20",
					"jsarguments" : [ "knob2-100.png", 100 ],
					"maxclass" : "jsui",
					"numinlets" : 1,
					"numoutlets" : 1,
					"outlettype" : [ "" ],
					"parameter_enable" : 0,
					"patching_rect" : [ 253.5, 512.0, 27.0, 27.0 ],
					"presentation_rect" : [ 219.0, 326.0, 27.0, 27.0 ]
				}

			}
, 			{
				"box" : 				{
					"border" : 0,
					"embedstate" : [ [ "vreset", 0 ], [ "vmax", 1 ], [ "frgb", 0, 0, 0, 0 ], [ "brgb", 1, 1, 1, 0 ], [ "vmin", 0 ], [ "type", 1 ], [ "font", "Arial" ], [ "fontsize", 10 ], [ "readout", 0 ] ],
					"filename" : "ol.pngknob.js",
					"id" : "obj-21",
					"jsarguments" : [ "knob2-100.png", 100 ],
					"maxclass" : "jsui",
					"numinlets" : 1,
					"numoutlets" : 1,
					"outlettype" : [ "" ],
					"parameter_enable" : 0,
					"patching_rect" : [ 221.5, 512.0, 27.0, 27.0 ],
					"presentation_rect" : [ 187.0, 326.0, 27.0, 27.0 ]
				}

			}
, 			{
				"box" : 				{
					"border" : 0,
					"embedstate" : [ [ "vreset", 0 ], [ "vmax", 1 ], [ "frgb", 0, 0, 0, 0 ], [ "brgb", 1, 1, 1, 0 ], [ "vmin", 0 ], [ "type", 1 ], [ "font", "Arial" ], [ "fontsize", 10 ], [ "readout", 0 ] ],
					"filename" : "ol.pngknob.js",
					"id" : "obj-16",
					"jsarguments" : [ "knob2-100.png", 100 ],
					"maxclass" : "jsui",
					"numinlets" : 1,
					"numoutlets" : 1,
					"outlettype" : [ "" ],
					"parameter_enable" : 0,
					"patching_rect" : [ 284.5, 477.0, 27.0, 27.0 ],
					"presentation_rect" : [ 245.0, 299.0, 27.0, 27.0 ]
				}

			}
, 			{
				"box" : 				{
					"border" : 0,
					"embedstate" : [ [ "vreset", 0 ], [ "vmax", 1 ], [ "frgb", 0, 0, 0, 0 ], [ "brgb", 1, 1, 1, 0 ], [ "vmin", 0 ], [ "type", 1 ], [ "font", "Arial" ], [ "fontsize", 10 ], [ "readout", 0 ] ],
					"filename" : "ol.pngknob.js",
					"id" : "obj-15",
					"jsarguments" : [ "knob2-100.png", 100 ],
					"maxclass" : "jsui",
					"numinlets" : 1,
					"numoutlets" : 1,
					"outlettype" : [ "" ],
					"parameter_enable" : 0,
					"patching_rect" : [ 253.5, 477.0, 27.0, 27.0 ],
					"presentation_rect" : [ 218.0, 300.0, 27.0, 27.0 ]
				}

			}
, 			{
				"box" : 				{
					"border" : 0,
					"embedstate" : [ [ "vreset", 0 ], [ "vmax", 1 ], [ "frgb", 0, 0, 0, 1 ], [ "brgb", 1, 1, 1, 0 ], [ "vmin", 0 ], [ "type", 1 ], [ "font", "Arial" ], [ "fontsize", 10 ], [ "readout", 1 ] ],
					"filename" : "ol.pngknob.js",
					"id" : "obj-14",
					"jsarguments" : [ "knob1-60.png", 60 ],
					"maxclass" : "jsui",
					"numinlets" : 1,
					"numoutlets" : 1,
					"outlettype" : [ "" ],
					"parameter_enable" : 0,
					"patching_rect" : [ 457.5, 328.0, 48.0, 68.0 ],
					"presentation_rect" : [ 443.5, 191.0, 48.0, 68.0 ]
				}

			}
, 			{
				"box" : 				{
					"border" : 0,
					"embedstate" : [ [ "vreset", 0 ], [ "vmax", 1 ], [ "frgb", 0, 0, 0, 1 ], [ "brgb", 1, 1, 1, 0 ], [ "vmin", 0 ], [ "type", 1 ], [ "font", "Arial" ], [ "fontsize", 10 ], [ "readout", 1 ] ],
					"filename" : "ol.pngknob.js",
					"id" : "obj-13",
					"jsarguments" : [ "knob1-60.png", 60 ],
					"maxclass" : "jsui",
					"numinlets" : 1,
					"numoutlets" : 1,
					"outlettype" : [ "" ],
					"parameter_enable" : 0,
					"patching_rect" : [ 396.833344, 328.0, 48.0, 68.0 ],
					"presentation_rect" : [ 384.0, 186.0, 48.0, 68.0 ]
				}

			}
, 			{
				"box" : 				{
					"border" : 0,
					"embedstate" : [ [ "vreset", 0 ], [ "vmax", 1 ], [ "frgb", 0, 0, 0, 1 ], [ "brgb", 1, 1, 1, 0 ], [ "vmin", 0 ], [ "type", 1 ], [ "font", "Arial" ], [ "fontsize", 10 ], [ "readout", 1 ] ],
					"filename" : "ol.pngknob.js",
					"id" : "obj-12",
					"jsarguments" : [ "knob1-60.png", 60 ],
					"maxclass" : "jsui",
					"numinlets" : 1,
					"numoutlets" : 1,
					"outlettype" : [ "" ],
					"parameter_enable" : 0,
					"patching_rect" : [ 344.333344, 328.0, 48.0, 68.0 ],
					"presentation_rect" : [ 331.0, 186.0, 48.0, 68.0 ]
				}

			}
, 			{
				"box" : 				{
					"border" : 0,
					"embedstate" : [ [ "vreset", 0 ], [ "vmax", 1 ], [ "frgb", 0, 0, 0, 1 ], [ "brgb", 1, 1, 1, 0 ], [ "vmin", 0 ], [ "type", 1 ], [ "font", "Arial" ], [ "fontsize", 10 ], [ "readout", 1 ] ],
					"filename" : "ol.pngknob.js",
					"id" : "obj-10",
					"jsarguments" : [ "knob1-60.png", 60 ],
					"maxclass" : "jsui",
					"numinlets" : 1,
					"numoutlets" : 1,
					"outlettype" : [ "" ],
					"parameter_enable" : 0,
					"patching_rect" : [ 297.333344, 328.0, 48.0, 68.0 ],
					"presentation_rect" : [ 285.0, 189.0, 48.0, 68.0 ]
				}

			}
, 			{
				"box" : 				{
					"border" : 0,
					"embedstate" : [ [ "vreset", 0 ], [ "vmax", 1 ], [ "frgb", 0, 0, 0, 1 ], [ "brgb", 1, 1, 1, 0 ], [ "vmin", 0 ], [ "type", 1 ], [ "font", "Arial" ], [ "fontsize", 10 ], [ "readout", 1 ] ],
					"filename" : "ol.pngknob.js",
					"id" : "obj-7",
					"jsarguments" : [ "knob1-60.png", 60 ],
					"maxclass" : "jsui",
					"numinlets" : 1,
					"numoutlets" : 1,
					"outlettype" : [ "" ],
					"parameter_enable" : 0,
					"patching_rect" : [ 243.333344, 328.0, 48.0, 68.0 ],
					"presentation_rect" : [ 228.5, 188.0, 48.0, 68.0 ]
				}

			}
, 			{
				"box" : 				{
					"border" : 0,
					"embedstate" : [ [ "vreset", 0 ], [ "vmax", 1 ], [ "frgb", 0, 0, 0, 1 ], [ "brgb", 1, 1, 1, 0 ], [ "vmin", 0 ], [ "type", 1 ], [ "font", "Arial" ], [ "fontsize", 10 ], [ "readout", 1 ] ],
					"filename" : "ol.pngknob.js",
					"id" : "obj-6",
					"jsarguments" : [ "knob1-60.png", 60 ],
					"maxclass" : "jsui",
					"numinlets" : 1,
					"numoutlets" : 1,
					"outlettype" : [ "" ],
					"parameter_enable" : 0,
					"patching_rect" : [ 190.833344, 328.0, 48.0, 68.0 ],
					"presentation_rect" : [ 179.5, 190.0, 48.0, 68.0 ]
				}

			}
, 			{
				"box" : 				{
					"border" : 0,
					"embedstate" : [ [ "vreset", 0 ], [ "vmax", 1 ], [ "frgb", 0, 0, 0, 0 ], [ "brgb", 1, 1, 1, 0 ], [ "vmin", 0 ], [ "type", 1 ], [ "font", "Arial" ], [ "fontsize", 10 ], [ "readout", 0 ] ],
					"filename" : "ol.pngknob.js",
					"id" : "obj-1",
					"jsarguments" : [ "knob2-100.png", 100 ],
					"maxclass" : "jsui",
					"numinlets" : 1,
					"numoutlets" : 1,
					"outlettype" : [ "" ],
					"parameter_enable" : 0,
					"patching_rect" : [ 221.5, 477.0, 27.0, 27.0 ],
					"presentation_rect" : [ 85.0, 273.5, 27.0, 27.0 ]
				}

			}
, 			{
				"box" : 				{
					"fontname" : "Arial",
					"fontsize" : 12.0,
					"id" : "obj-19",
					"maxclass" : "flonum",
					"numinlets" : 1,
					"numoutlets" : 2,
					"outlettype" : [ "float", "bang" ],
					"parameter_enable" : 0,
					"patching_rect" : [ 101.0, 171.0, 50.0, 20.0 ]
				}

			}
, 			{
				"box" : 				{
					"fontname" : "Arial",
					"fontsize" : 12.0,
					"id" : "obj-17",
					"maxclass" : "message",
					"numinlets" : 2,
					"numoutlets" : 1,
					"outlettype" : [ "" ],
					"patching_rect" : [ 101.0, 217.0, 69.0, 18.0 ],
					"text" : "fontsize $1"
				}

			}
, 			{
				"box" : 				{
					"id" : "obj-11",
					"maxclass" : "toggle",
					"numinlets" : 1,
					"numoutlets" : 1,
					"outlettype" : [ "int" ],
					"parameter_enable" : 0,
					"patching_rect" : [ 284.5, 197.0, 20.0, 20.0 ]
				}

			}
, 			{
				"box" : 				{
					"fontname" : "Arial",
					"fontsize" : 12.0,
					"id" : "obj-9",
					"maxclass" : "message",
					"numinlets" : 2,
					"numoutlets" : 1,
					"outlettype" : [ "" ],
					"patching_rect" : [ 284.5, 232.0, 68.0, 18.0 ],
					"text" : "readout $1"
				}

			}
, 			{
				"box" : 				{
					"fontname" : "Arial",
					"fontsize" : 12.0,
					"id" : "obj-4",
					"maxclass" : "flonum",
					"numinlets" : 1,
					"numoutlets" : 2,
					"outlettype" : [ "float", "bang" ],
					"parameter_enable" : 0,
					"patching_rect" : [ 37.0, 221.0, 50.0, 20.0 ]
				}

			}
, 			{
				"box" : 				{
					"fontname" : "Arial",
					"fontsize" : 12.0,
					"id" : "obj-3",
					"maxclass" : "flonum",
					"numinlets" : 1,
					"numoutlets" : 2,
					"outlettype" : [ "float", "bang" ],
					"parameter_enable" : 0,
					"patching_rect" : [ 139.5, 416.25, 50.0, 20.0 ]
				}

			}
, 			{
				"box" : 				{
					"border" : 0,
					"embedstate" : [ [ "vreset", 50 ], [ "vmax", 100 ], [ "frgb", 0, 0, 0, 1 ], [ "brgb", 1, 1, 1, 0 ], [ "vmin", 0 ], [ "type", 1 ], [ "font", "Arial" ], [ "fontsize", 10 ], [ "readout", 1 ] ],
					"filename" : "ol.pngknob.js",
					"id" : "obj-130",
					"jsarguments" : [ "knob1-60.png", 60 ],
					"maxclass" : "jsui",
					"numinlets" : 1,
					"numoutlets" : 1,
					"outlettype" : [ "" ],
					"parameter_enable" : 0,
					"patching_rect" : [ 139.5, 328.0, 48.0, 68.0 ],
					"presentation_rect" : [ 390.0, 390.0, 48.0, 68.0 ]
				}

			}
, 			{
				"box" : 				{
					"grad1" : [ 0.0, 0.096331, 0.929412, 1.0 ],
					"grad2" : [ 0.8995, 0.899114, 0.989796, 1.0 ],
					"id" : "obj-2",
					"ignoreclick" : 1,
					"maxclass" : "panel",
					"mode" : 1,
					"numinlets" : 1,
					"numoutlets" : 0,
					"patching_rect" : [ 133.0, 322.5, 382.0, 73.5 ]
				}

			}
, 			{
				"box" : 				{
					"bgcolor" : [ 0.192157, 0.682353, 0.580392, 1.0 ],
					"grad1" : [ 0.0, 0.096331, 0.929412, 1.0 ],
					"grad2" : [ 0.8995, 0.899114, 0.989796, 1.0 ],
					"id" : "obj-5",
					"ignoreclick" : 1,
					"maxclass" : "panel",
					"numinlets" : 1,
					"numoutlets" : 0,
					"patching_rect" : [ 209.0, 469.0, 116.0, 78.0 ]
				}

			}
, 			{
				"box" : 				{
					"background" : 1,
					"bgcolor" : [ 1.0, 0.701961, 0.0, 1.0 ],
					"grad1" : [ 0.86, 0.86, 0.75, 1.0 ],
					"grad2" : [ 0.78, 0.84, 0.86, 0.7 ],
					"id" : "obj-114",
					"ignoreclick" : 1,
					"maxclass" : "panel",
					"numinlets" : 1,
					"numoutlets" : 0,
					"patching_rect" : [ 4.0, 6.0, 709.0, 60.0 ],
					"varname" : "autohelp_top_panel"
				}

			}
, 			{
				"box" : 				{
					"attr" : "bgcolor",
					"fontname" : "Arial",
					"fontsize" : 12.0,
					"id" : "obj-30",
					"maxclass" : "attrui",
					"numinlets" : 1,
					"numoutlets" : 1,
					"outlettype" : [ "" ],
					"patching_rect" : [ 209.0, 439.0, 150.0, 20.0 ]
				}

			}
, 			{
				"box" : 				{
					"attr" : "frgb",
					"fontname" : "Arial",
					"fontsize" : 12.0,
					"id" : "obj-39",
					"maxclass" : "attrui",
					"numinlets" : 1,
					"numoutlets" : 1,
					"outlettype" : [ "" ],
					"patching_rect" : [ 400.5, 590.0, 249.0, 20.0 ]
				}

			}
, 			{
				"box" : 				{
					"bgcolor" : [ 0.666667, 0.666667, 0.666667, 0.0 ],
					"border" : 2,
					"bordercolor" : [ 0.835766, 0.835766, 0.835766, 1.0 ],
					"id" : "obj-37",
					"ignoreclick" : 1,
					"maxclass" : "panel",
					"numinlets" : 1,
					"numoutlets" : 0,
					"patching_rect" : [ 44.666672, 590.0, 215.333328, 96.0 ],
					"rounded" : 15
				}

			}
, 			{
				"box" : 				{
					"bgcolor" : [ 0.030612, 0.030612, 0.030612, 1.0 ],
					"grad1" : [ 0.368613, 0.368613, 0.368613, 1.0 ],
					"grad2" : [ 0.092732, 0.092692, 0.102041, 1.0 ],
					"id" : "obj-34",
					"ignoreclick" : 1,
					"maxclass" : "panel",
					"mode" : 1,
					"numinlets" : 1,
					"numoutlets" : 0,
					"patching_rect" : [ 37.0, 568.0, 233.0, 128.0 ]
				}

			}
, 			{
				"box" : 				{
					"attr" : "brgb",
					"fontname" : "Arial",
					"fontsize" : 12.0,
					"id" : "obj-41",
					"maxclass" : "attrui",
					"numinlets" : 1,
					"numoutlets" : 1,
					"outlettype" : [ "" ],
					"patching_rect" : [ 361.0, 558.0, 330.0, 20.0 ]
				}

			}
 ],
		"lines" : [ 			{
				"patchline" : 				{
					"destination" : [ "obj-9", 0 ],
					"disabled" : 0,
					"hidden" : 0,
					"source" : [ "obj-11", 0 ]
				}

			}
, 			{
				"patchline" : 				{
					"destination" : [ "obj-3", 0 ],
					"disabled" : 0,
					"hidden" : 0,
					"source" : [ "obj-130", 0 ]
				}

			}
, 			{
				"patchline" : 				{
					"destination" : [ "obj-130", 0 ],
					"disabled" : 0,
					"hidden" : 0,
					"source" : [ "obj-17", 0 ]
				}

			}
, 			{
				"patchline" : 				{
					"destination" : [ "obj-17", 0 ],
					"disabled" : 0,
					"hidden" : 0,
					"source" : [ "obj-19", 0 ]
				}

			}
, 			{
				"patchline" : 				{
					"destination" : [ "obj-25", 0 ],
					"disabled" : 0,
					"hidden" : 0,
					"source" : [ "obj-24", 0 ]
				}

			}
, 			{
				"patchline" : 				{
					"destination" : [ "obj-130", 0 ],
					"disabled" : 0,
					"hidden" : 0,
					"source" : [ "obj-25", 0 ]
				}

			}
, 			{
				"patchline" : 				{
					"destination" : [ "obj-27", 0 ],
					"disabled" : 0,
					"hidden" : 0,
					"source" : [ "obj-26", 0 ]
				}

			}
, 			{
				"patchline" : 				{
					"destination" : [ "obj-30", 0 ],
					"disabled" : 0,
					"hidden" : 0,
					"source" : [ "obj-27", 0 ]
				}

			}
, 			{
				"patchline" : 				{
					"destination" : [ "obj-41", 0 ],
					"disabled" : 0,
					"hidden" : 0,
					"source" : [ "obj-27", 0 ]
				}

			}
, 			{
				"patchline" : 				{
					"destination" : [ "obj-13", 0 ],
					"disabled" : 0,
					"hidden" : 0,
					"source" : [ "obj-28", 0 ]
				}

			}
, 			{
				"patchline" : 				{
					"destination" : [ "obj-13", 0 ],
					"disabled" : 0,
					"hidden" : 0,
					"source" : [ "obj-29", 0 ]
				}

			}
, 			{
				"patchline" : 				{
					"destination" : [ "obj-5", 0 ],
					"disabled" : 0,
					"hidden" : 0,
					"source" : [ "obj-30", 0 ]
				}

			}
, 			{
				"patchline" : 				{
					"destination" : [ "obj-38", 0 ],
					"disabled" : 0,
					"hidden" : 0,
					"source" : [ "obj-39", 0 ]
				}

			}
, 			{
				"patchline" : 				{
					"destination" : [ "obj-130", 0 ],
					"disabled" : 0,
					"hidden" : 0,
					"source" : [ "obj-4", 0 ]
				}

			}
, 			{
				"patchline" : 				{
					"destination" : [ "obj-38", 0 ],
					"disabled" : 0,
					"hidden" : 0,
					"source" : [ "obj-41", 0 ]
				}

			}
, 			{
				"patchline" : 				{
					"destination" : [ "obj-13", 0 ],
					"disabled" : 0,
					"hidden" : 0,
					"source" : [ "obj-8", 0 ]
				}

			}
, 			{
				"patchline" : 				{
					"destination" : [ "obj-130", 0 ],
					"disabled" : 0,
					"hidden" : 0,
					"source" : [ "obj-9", 0 ]
				}

			}
 ],
		"dependency_cache" : [ 			{
				"name" : "ol.pngknob.js",
				"bootpath" : "/Users/oli/Dev/MyMaxStuff/MyControlsLibrary/pngknob",
				"patcherrelativepath" : "",
				"type" : "TEXT",
				"implicit" : 1
			}
 ]
	}

}
