{
	"patcher" : 	{
		"fileversion" : 1,
		"rect" : [ 50.0, 94.0, 640.0, 480.0 ],
		"bglocked" : 0,
		"defrect" : [ 50.0, 94.0, 640.0, 480.0 ],
		"openrect" : [ 0.0, 0.0, 0.0, 0.0 ],
		"openinpresentation" : 1,
		"default_fontsize" : 12.0,
		"default_fontface" : 0,
		"default_fontname" : "Arial",
		"gridonopen" : 0,
		"gridsize" : [ 10.0, 10.0 ],
		"gridsnaponopen" : 0,
		"toolbarvisible" : 1,
		"boxanimatetime" : 200,
		"imprint" : 0,
		"enablehscroll" : 1,
		"enablevscroll" : 1,
		"devicewidth" : 0.0,
		"boxes" : [ 			{
				"box" : 				{
					"maxclass" : "newobj",
					"text" : "t 0",
					"fontsize" : 12.0,
					"patching_rect" : [ 390.0, 110.0, 24.0, 20.0 ],
					"numinlets" : 1,
					"id" : "obj-11",
					"fontname" : "Arial",
					"numoutlets" : 1,
					"outlettype" : [ "int" ]
				}

			}
, 			{
				"box" : 				{
					"maxclass" : "inlet",
					"patching_rect" : [ 390.0, 60.0, 25.0, 25.0 ],
					"numinlets" : 0,
					"id" : "obj-5",
					"numoutlets" : 1,
					"outlettype" : [ "" ],
					"comment" : ""
				}

			}
, 			{
				"box" : 				{
					"maxclass" : "pictctrl",
					"presentation_rect" : [ 0.0, 0.0, 20.0, 20.0 ],
					"patching_rect" : [ 255.0, 165.0, 20.0, 20.0 ],
					"presentation" : 1,
					"numinlets" : 1,
					"clickedimage" : 1,
					"name" : "#2",
					"id" : "obj-3",
					"numoutlets" : 1,
					"snap" : 1,
					"outlettype" : [ "int" ]
				}

			}
, 			{
				"box" : 				{
					"maxclass" : "pictctrl",
					"presentation_rect" : [ 395.0, 285.0, 0.0, 0.0 ],
					"patching_rect" : [ 395.0, 285.0, 0.0, 0.0 ],
					"presentation" : 1,
					"numinlets" : 1,
					"name" : "#2",
					"id" : "obj-2",
					"numoutlets" : 1,
					"snap" : 1,
					"outlettype" : [ "int" ]
				}

			}
, 			{
				"box" : 				{
					"maxclass" : "inlet",
					"patching_rect" : [ 190.0, 70.0, 25.0, 25.0 ],
					"numinlets" : 0,
					"id" : "obj-1",
					"numoutlets" : 1,
					"outlettype" : [ "" ],
					"comment" : ""
				}

			}
, 			{
				"box" : 				{
					"maxclass" : "inlet",
					"patching_rect" : [ 260.0, 60.0, 25.0, 25.0 ],
					"numinlets" : 0,
					"id" : "obj-8",
					"numoutlets" : 1,
					"outlettype" : [ "" ],
					"comment" : ""
				}

			}
, 			{
				"box" : 				{
					"maxclass" : "outlet",
					"patching_rect" : [ 250.0, 320.0, 25.0, 25.0 ],
					"numinlets" : 1,
					"id" : "obj-23",
					"numoutlets" : 0,
					"comment" : ""
				}

			}
, 			{
				"box" : 				{
					"maxclass" : "newobj",
					"text" : "pack #1 127",
					"fontsize" : 12.0,
					"patching_rect" : [ 250.0, 280.0, 76.0, 20.0 ],
					"numinlets" : 2,
					"id" : "obj-20",
					"fontname" : "Arial",
					"numoutlets" : 1,
					"outlettype" : [ "" ]
				}

			}
, 			{
				"box" : 				{
					"maxclass" : "newobj",
					"text" : "t b i",
					"fontsize" : 12.0,
					"patching_rect" : [ 250.0, 230.0, 32.5, 20.0 ],
					"numinlets" : 1,
					"id" : "obj-19",
					"fontname" : "Arial",
					"numoutlets" : 2,
					"outlettype" : [ "bang", "int" ]
				}

			}
, 			{
				"box" : 				{
					"maxclass" : "newobj",
					"text" : "* 127",
					"fontsize" : 12.0,
					"patching_rect" : [ 250.0, 200.0, 39.0, 20.0 ],
					"numinlets" : 2,
					"id" : "obj-13",
					"fontname" : "Arial",
					"numoutlets" : 1,
					"outlettype" : [ "int" ]
				}

			}
, 			{
				"box" : 				{
					"maxclass" : "message",
					"text" : "mode $1, snap 1",
					"fontsize" : 12.0,
					"patching_rect" : [ 260.0, 90.0, 100.0, 18.0 ],
					"numinlets" : 2,
					"id" : "obj-6",
					"fontname" : "Arial",
					"numoutlets" : 1,
					"outlettype" : [ "" ]
				}

			}
, 			{
				"box" : 				{
					"maxclass" : "message",
					"text" : "set $1",
					"fontsize" : 12.0,
					"patching_rect" : [ 190.0, 140.0, 50.0, 18.0 ],
					"numinlets" : 2,
					"id" : "obj-7",
					"fontname" : "Arial",
					"numoutlets" : 1,
					"outlettype" : [ "" ]
				}

			}
 ],
		"lines" : [ 			{
				"patchline" : 				{
					"source" : [ "obj-5", 0 ],
					"destination" : [ "obj-11", 0 ],
					"hidden" : 0,
					"midpoints" : [  ]
				}

			}
, 			{
				"patchline" : 				{
					"source" : [ "obj-1", 0 ],
					"destination" : [ "obj-7", 0 ],
					"hidden" : 0,
					"midpoints" : [  ]
				}

			}
, 			{
				"patchline" : 				{
					"source" : [ "obj-20", 0 ],
					"destination" : [ "obj-23", 0 ],
					"hidden" : 0,
					"midpoints" : [  ]
				}

			}
, 			{
				"patchline" : 				{
					"source" : [ "obj-19", 1 ],
					"destination" : [ "obj-20", 1 ],
					"hidden" : 0,
					"midpoints" : [  ]
				}

			}
, 			{
				"patchline" : 				{
					"source" : [ "obj-19", 0 ],
					"destination" : [ "obj-20", 0 ],
					"hidden" : 0,
					"midpoints" : [  ]
				}

			}
, 			{
				"patchline" : 				{
					"source" : [ "obj-13", 0 ],
					"destination" : [ "obj-19", 0 ],
					"hidden" : 0,
					"midpoints" : [  ]
				}

			}
, 			{
				"patchline" : 				{
					"source" : [ "obj-8", 0 ],
					"destination" : [ "obj-6", 0 ],
					"hidden" : 0,
					"midpoints" : [  ]
				}

			}
, 			{
				"patchline" : 				{
					"source" : [ "obj-6", 0 ],
					"destination" : [ "obj-3", 0 ],
					"hidden" : 0,
					"midpoints" : [  ]
				}

			}
, 			{
				"patchline" : 				{
					"source" : [ "obj-3", 0 ],
					"destination" : [ "obj-13", 0 ],
					"hidden" : 0,
					"midpoints" : [  ]
				}

			}
, 			{
				"patchline" : 				{
					"source" : [ "obj-7", 0 ],
					"destination" : [ "obj-3", 0 ],
					"hidden" : 0,
					"midpoints" : [  ]
				}

			}
, 			{
				"patchline" : 				{
					"source" : [ "obj-11", 0 ],
					"destination" : [ "obj-3", 0 ],
					"hidden" : 0,
					"midpoints" : [  ]
				}

			}
 ]
	}

}
